<svg xmlns="http://www.w3.org/2000/svg" viewBox="0 0 24 24" width="16" height="16" fill="white"><path d="M7.8 2h8.4C19.4 2 22 4.6 22 7.8v8.4c0 3.2-2.6 5.8-5.8 5.8H7.8C4.6 22 2 19.4 2 16.2V7.8C2 4.6 4.6 2 7.8 2zm-.2 2C5.6 4 4 5.6 4 7.8v8.4c0 2.2 1.6 3.8 3.8 3.8h8.4c2.2 0 3.8-1.6 3.8-3.8V7.8c0-2.2-1.6-3.8-3.8-3.8H7.8zm4.2 3c2.8 0 5 2.2 5 5s-2.2 5-5 5-5-2.2-5-5 2.2-5 5-5zm0 2c-1.7 0-3 1.3-3 3s1.3 3 3 3 3-1.3 3-3-1.3-3-3-3zm5-2.5c0 .8-.7 1.5-1.5 1.5s-1.5-.7-1.5-1.5.7-1.5 1.5-1.5 1.5.7 1.5 1.5z"/></svg>
