<svg xmlns="http://www.w3.org/2000/svg" width="24" height="24" viewBox="0 0 24 24" fill="none" stroke="#FFF" stroke-width="2" stroke-linecap="round" stroke-linejoin="round"><circle cx="13.5" cy="6.5" r="1.5"/><circle cx="17.5" cy="10.5" r="1.5"/><circle cx="8.5" cy="7.5" r="1.5"/><circle cx="6.5" cy="12.5" r="1.5"/><path d="M12 2C6.5 2 2 6.5 2 12s4.5 10 10 10c.93 0 1.5-.67 1.5-1.5 0-.37-.13-.7-.35-.95-.22-.26-.35-.6-.35-.98 0-.83.67-1.5 1.5-1.5h1.5c3.86 0 7-3.14 7-7 0-4.39-3.59-8.07-8-8.07z"/></svg>
